nColumns=19
nRows=38
DataType=double
version=3
OpenSimVersion=4.1
endheader
time	ground_force_calcn_r_vx	ground_force_calcn_r_vy	ground_force_calcn_r_vz	ground_force_calcn_r_px	ground_force_calcn_r_py	ground_force_calcn_r_pz	ground_force_calcn_r_mx	ground_force_calcn_r_my	ground_force_calcn_r_mz	ground_force_calcn_l_vx	ground_force_calcn_l_vy	ground_force_calcn_l_vz	ground_force_calcn_l_px	ground_force_calcn_l_py	ground_force_calcn_l_pz	ground_force_calcn_l_mx	ground_force_calcn_l_my	ground_force_calcn_l_mz
9.6	8.24836	367.119	-64.4749	-0.214115	0	-0.377243	-0.0445702	-1.98374	0.348392	1.43024	347.65	61.5583	-0.181032	0	-0.773949	0.00836343	2.03291	0.359967
9.61	7.88093	364.912	-64.1844	-0.214714	0	-0.377323	-0.0424993	-1.96785	0.346125	1.42324	346.746	61.6413	-0.181824	0	-0.773839	0.00797769	1.94362	0.345518
9.62	7.46794	362.004	-63.7622	-0.21528	0	-0.377371	-0.0404054	-1.95863	0.344986	1.34015	344.989	61.5689	-0.182578	0	-0.773705	0.00721274	1.85674	0.331365
9.63	7.00306	358.287	-63.195	-0.215797	0	-0.377384	-0.0381743	-1.95305	0.344481	1.17978	342.262	61.3169	-0.183285	0	-0.773541	0.00610687	1.77164	0.317393
9.64	6.48098	353.667	-62.468	-0.216248	0	-0.377363	-0.0356957	-1.94791	0.344059	0.944836	338.479	60.863	-0.183941	0	-0.773341	0.00471071	1.68757	0.303447
9.65	5.90064	348.077	-61.5651	-0.216617	0	-0.377308	-0.032889	-1.94011	0.343151	0.643079	333.598	60.1877	-0.184541	0	-0.773096	0.00309157	1.60375	0.289349
9.66	5.26783	341.48	-60.4696	-0.21689	0	-0.377225	-0.0297246	-1.92686	0.34121	0.287019	327.612	59.2759	-0.185078	0	-0.7728	0.00133112	1.51938	0.274906
9.67	4.59534	333.869	-59.1655	-0.217055	0	-0.377118	-0.0262314	-1.90581	0.337732	-0.107473	320.553	58.1187	-0.185551	0	-0.772441	-0.000480683	1.4337	0.259941
9.68	3.90101	325.27	-57.6409	-0.217105	0	-0.377	-0.0224889	-1.87514	0.332293	-0.522623	312.479	56.7142	-0.18595	0	-0.772012	-0.00225139	1.34611	0.244317
9.69	3.2045	315.738	-55.8897	-0.217028	0	-0.376875	-0.0186098	-1.83363	0.324575	-0.939958	303.477	55.0692	-0.186269	0	-0.771507	-0.00389055	1.25611	0.227935
9.7	2.52486	305.365	-53.9144	-0.216817	0	-0.376753	-0.0147237	-1.78074	0.314402	-1.33991	293.666	53.1993	-0.186501	0	-0.770917	-0.00530861	1.16348	0.210771
9.71	1.87957	294.268	-51.7272	-0.216462	0	-0.376635	-0.0109652	-1.71672	0.30177	-1.7014	283.194	51.1295	-0.186638	0	-0.770242	-0.00641984	1.06857	0.192926
9.72	1.2846	282.6	-49.3519	-0.21595	0	-0.376525	-0.00746645	-1.64256	0.286848	-2.00333	272.239	48.8937	-0.186678	0	-0.769477	-0.0071562	0.972483	0.174656
9.73	0.754234	270.544	-46.8247	-0.21527	0	-0.37642	-0.00434883	-1.55993	0.269986	-2.22648	261.015	46.535	-0.18662	0	-0.768622	-0.00748017	0.876916	0.156341
9.74	0.299529	258.306	-44.1926	-0.214406	0	-0.376316	-0.00170585	-1.47109	0.251682	-2.3565	249.753	44.1043	-0.186464	0	-0.767687	-0.00739588	0.78385	0.138421
9.75	-0.0736416	246.101	-41.5109	-0.213344	0	-0.376204	0.000412537	-1.37865	0.232542	-2.38776	238.688	41.6589	-0.186208	0	-0.766684	-0.0069566	0.695403	0.121371
9.76	-0.365579	234.149	-38.8406	-0.212069	0	-0.376072	0.00200698	-1.28545	0.213229	-2.32504	228.047	39.2593	-0.185848	0	-0.765639	-0.00625709	0.613713	0.105654
9.77	-0.583133	222.657	-36.2444	-0.210565	0	-0.375902	0.00312784	-1.1943	0.19441	-2.18227	218.029	36.9648	-0.185374	0	-0.764587	-0.0054118	0.540687	0.0916686
9.78	-0.739716	211.816	-33.7844	-0.208818	0	-0.375674	0.00386899	-1.10787	0.176705	-1.98012	208.801	34.8298	-0.184772	0	-0.763568	-0.00453111	0.477799	0.0797012
9.79	-0.853769	201.805	-31.5193	-0.206821	0	-0.375364	0.00435105	-1.02845	0.160631	-1.74132	200.507	32.9023	-0.184027	0	-0.76263	-0.00369996	0.426039	0.069911
9.8	-0.944683	192.795	-29.5005	-0.204578	0	-0.374953	0.00469279	-0.957725	0.146546	-1.48569	193.271	31.2202	-0.183133	0	-0.761822	-0.00296718	0.385996	0.0623522
9.81	-1.03043	184.948	-27.7681	-0.202112	0	-0.374426	0.00499669	-0.896841	0.134651	-1.22914	187.202	29.8118	-0.1821	0	-0.761189	-0.00234931	0.357807	0.0569805
9.82	-1.12519	178.425	-26.3495	-0.199474	0	-0.373783	0.00533823	-0.8465	0.125009	-0.984029	182.41	28.6959	-0.180953	0	-0.760774	-0.00184043	0.341162	0.0536701
9.83	-1.23623	173.375	-25.2569	-0.196743	0	-0.373033	0.00575487	-0.807091	0.117575	-0.757771	178.996	27.881	-0.17974	0	-0.760605	-0.00142002	0.335429	0.0522474
9.84	-1.3617	169.917	-24.4867	-0.194031	0	-0.372204	0.00624241	-0.778943	0.112254	-0.55224	177.04	27.3646	-0.178528	0	-0.760696	-0.00106005	0.339835	0.0525274
9.85	-1.49133	168.126	-24.022	-0.191461	0	-0.37133	0.00676364	-0.7625	0.108947	-0.364491	176.586	27.135	-0.17739	0	-0.761044	-0.000729934	0.353634	0.0543409
9.86	-1.6095	168.029	-23.8358	-0.18916	0	-0.370458	0.00726464	-0.758418	0.107586	-0.18734	177.65	27.1727	-0.176403	0	-0.761626	-0.000396775	0.376253	0.0575504
9.87	-1.70055	169.606	-23.8957	-0.187232	0	-0.36963	0.00769463	-0.767431	0.108123	-0.00916823	180.209	27.452	-0.175634	0	-0.762399	-2.072e-05	0.407267	0.0620409
9.88	-1.7527	172.799	-24.168	-0.18575	0	-0.368883	0.00801508	-0.79021	0.11052	0.18513	184.205	27.9425	-0.175138	0	-0.76331	0.000448628	0.446385	0.0677133
9.89	-1.75825	177.515	-24.6209	-0.184738	0	-0.368243	0.0081929	-0.827167	0.114726	0.41075	189.546	28.6108	-0.17494	0	-0.764301	0.00106887	0.493243	0.0744522
9.9	-1.71373	183.632	-25.2269	-0.184182	0	-0.367716	0.00819511	-0.878134	0.120636	0.678886	196.104	29.4216	-0.175037	0	-0.76532	0.0018941	0.547132	0.0820866
9.91	-1.62198	190.999	-25.9647	-0.184028	0	-0.367301	0.00800055	-0.942118	0.128073	0.994456	203.716	30.3378	-0.175395	0	-0.766321	0.0029625	0.606872	0.0903767
9.92	-1.49115	199.437	-26.8187	-0.184197	0	-0.366982	0.00760643	-1.01734	0.136803	1.35372	212.177	31.3213	-0.175956	0	-0.767274	0.00427963	0.670773	0.0990186
9.93	-1.33278	208.742	-27.7773	-0.184601	0	-0.366736	0.0070315	-1.10128	0.146547	1.74302	221.251	32.3346	-0.176647	0	-0.768159	0.00580299	0.736604	0.10765
9.94	-1.16165	218.684	-28.8306	-0.185153	0	-0.366538	0.00632597	-1.19088	0.157002	2.13987	230.677	33.3424	-0.177394	0	-0.768966	0.00743801	0.801816	0.115895
9.95	-0.995532	229.014	-29.9668	-0.185775	0	-0.366367	0.00557679	-1.28289	0.167868	2.5158	240.187	34.3156	-0.178126	0	-0.769696	0.00904784	0.863807	0.123412
9.96	-0.85364	239.473	-31.1719	-0.186401	0	-0.366201	0.00489849	-1.37418	0.178875	2.83974	249.516	35.2343	-0.178783	0	-0.770353	0.0104726	0.920185	0.12994
9.97	-0.754093	249.805	-32.4294	-0.18698	0	-0.366025	0.00441311	-1.46191	0.189784	3.08212	258.42	36.0902	-0.179323	0	-0.77095	0.0115558	0.968893	0.135313
